<svg width="32" height="24" viewBox="0 0 32 24" fill="none" xmlns="http://www.w3.org/2000/svg">
<path d="M27.8098 2.77858C27.8098 2.77858 25.5171 0.3513 20.3114 0V0.766423C20.3114 0.766423 23.1666 0.600551 26.701 4.0796C24.0332 2.16025 20.2273 0.957898 16 0.957898C11.7727 0.957898 7.96684 2.16007 5.29902 4.0796C8.83336 0.600551 11.6886 0.766423 11.6886 0.766423V0C6.48288 0.3513 4.19018 2.77858 4.19018 2.77858C0.223474 7.88808 0 19.0659 0 19.0659C3.73648 23.5688 8.43121 22.9942 8.43121 22.9942L10.1557 20.5032C7.93182 19.9016 6.34368 18.5204 5.38916 17.4448C8.05218 19.327 11.8198 20.5032 16 20.5032C20.1802 20.5032 23.9478 19.3272 26.6108 17.4448C25.6563 18.5202 24.0682 19.9016 21.8443 20.5032L23.5688 22.9942C23.5688 22.9942 28.2635 23.5691 32 19.0659C32.0004 19.0657 31.7767 7.88808 27.8098 2.77858ZM11.0181 15.9042C9.51889 15.9042 8.30357 14.6129 8.30357 13.0198C8.30357 11.4269 9.51889 10.1354 11.0181 10.1354C12.5174 10.1354 13.7327 11.4269 13.7327 13.0198C13.7327 14.6127 12.5174 15.9042 11.0181 15.9042ZM20.9822 15.9042C19.483 15.9042 18.2676 14.6129 18.2676 13.0198C18.2676 11.4269 19.483 10.1354 20.9822 10.1354C22.4815 10.1354 23.6968 11.4269 23.6968 13.0198C23.6968 14.6127 22.4816 15.9042 20.9822 15.9042Z" fill="white"/>
</svg>
