<svg width="33" height="19" viewBox="0 0 33 19" fill="none" xmlns="http://www.w3.org/2000/svg">
<path fill-rule="evenodd" clip-rule="evenodd" d="M16.0936 18.5262H17.9773C17.9773 18.5262 18.5463 18.4637 18.8368 18.1506C19.1041 17.8631 19.0956 17.3232 19.0956 17.3232C19.0956 17.3232 19.0588 14.7956 20.2319 14.4234C21.3883 14.0567 22.8733 16.8662 24.4472 17.9465C25.6374 18.7641 26.5418 18.5848 26.5418 18.5848L30.7503 18.5262C30.7503 18.5262 32.9519 18.3906 31.908 16.6596C31.8225 16.518 31.3001 15.3791 28.7789 13.0389C26.1401 10.5897 26.4935 10.9858 29.6722 6.74909C31.6081 4.16889 32.3821 2.59365 32.1403 1.91897C31.9097 1.27638 30.4859 1.44623 30.4859 1.44623L25.7474 1.47575C25.7474 1.47575 25.3961 1.42783 25.1356 1.58356C24.881 1.73629 24.7172 2.09224 24.7172 2.09224C24.7172 2.09224 23.9672 4.08889 22.967 5.78692C20.8569 9.36993 20.0133 9.55903 19.6684 9.33656C18.8663 8.81804 19.0665 7.2535 19.0665 6.14201C19.0665 2.6698 19.5931 1.22205 18.041 0.847278C17.5259 0.722782 17.1469 0.64064 15.8296 0.627377C14.1388 0.609837 12.7078 0.632511 11.8975 1.02953C11.3584 1.2935 10.9426 1.88175 11.1958 1.91555C11.509 1.95748 12.2183 2.10679 12.5944 2.61889C13.08 3.27945 13.0629 4.76314 13.0629 4.76314C13.0629 4.76314 13.3418 8.85056 12.4113 9.35838C11.7725 9.70663 10.8964 8.99559 9.01522 5.74499C8.05134 4.07991 7.32361 2.23941 7.32361 2.23941C7.32361 2.23941 7.18329 1.89544 6.93301 1.71148C6.62926 1.48858 6.20486 1.41757 6.20486 1.41757L1.70202 1.44708C1.70202 1.44708 1.02606 1.46591 0.777926 1.75982C0.55717 2.02122 0.760386 2.56199 0.760386 2.56199C0.760386 2.56199 4.28564 10.8096 8.27723 14.9659C11.9373 18.7765 16.0936 18.5262 16.0936 18.5262Z" fill="white"/>
</svg>
