<svg width="32" height="32" viewBox="0 0 32 32" fill="none" xmlns="http://www.w3.org/2000/svg">
<path d="M30.0234 8.26465L29.8707 8C27.0999 3.22266 21.9325 0 16.0234 0C10.1139 0 4.94653 3.22266 2.17603 8L2.02336 8.26465C0.954671 10.1914 0.274658 12.3607 0.083252 14.6667V17.3333C0.274658 19.6393 0.954671 21.8086 2.02336 23.7347L2.17603 24C4.94653 28.7773 10.1139 32 16.0234 32C21.9325 32 27.0999 28.7773 29.8707 24L30.0234 23.7347C31.092 21.8079 31.7721 19.6393 31.9631 17.3333V14.6667C31.7721 12.3607 31.092 10.1914 30.0234 8.26465ZM23.996 14.6667C23.9433 13.266 23.8085 11.9268 23.5992 10.6667H28.2353C28.7818 11.9134 29.148 13.2565 29.2887 14.6667H23.996ZM16.0234 29.3333C14.5159 29.3333 12.9058 27.2793 11.8531 24H20.1939C19.1405 27.2793 17.5305 29.3333 16.0234 29.3333ZM11.176 21.3333C10.9413 20.098 10.7825 18.7552 10.7206 17.3333H21.3258C21.2639 18.7552 21.1054 20.098 20.8707 21.3333H11.176ZM10.7206 14.6667C10.7825 13.2448 10.9413 11.902 11.176 10.6667H20.8707C21.1054 11.902 21.2639 13.2448 21.3258 14.6667H10.7206ZM16.0234 2.66667C17.5305 2.66667 19.1405 4.72135 20.1933 8H11.8531C12.9058 4.72135 14.5159 2.66667 16.0234 2.66667ZM26.6646 8H23.0172C22.5673 6.37337 21.9801 4.9401 21.2818 3.7513C23.428 4.67676 25.2747 6.15592 26.6646 8ZM10.7652 3.7513C10.0667 4.9401 9.47941 6.37337 9.02922 8H5.38208C6.77205 6.15592 8.61873 4.67676 10.7652 3.7513ZM3.81112 10.6667H8.44718C8.23853 11.9268 8.10311 13.266 8.0507 14.6667H2.75741C2.89803 13.2565 3.26392 11.9134 3.81112 10.6667ZM8.0507 17.3333C8.10311 18.7341 8.23787 20.0732 8.44718 21.3333H3.81112C3.26457 20.0866 2.89868 18.7435 2.75806 17.3333H8.0507ZM5.38208 24H9.02922C9.47941 25.6266 10.0667 27.0599 10.7646 28.2487C8.61873 27.3232 6.77205 25.8441 5.38208 24ZM21.2812 28.2487C21.9801 27.0599 22.5673 25.6266 23.0165 24H26.664C25.2747 25.8441 23.428 27.3232 21.2812 28.2487ZM28.2359 21.3333H23.5999C23.8085 20.0732 23.9439 18.7341 23.9967 17.3333H29.29C29.1487 18.7435 28.7825 20.0866 28.2359 21.3333Z" fill="white"/>
</svg>
